<?xml version="1.0" encoding="UTF-8"?>
<!DOCTYPE svg  PUBLIC '-//W3C//DTD SVG 1.1//EN'  'http://www.w3.org/Graphics/SVG/1.1/DTD/svg11.dtd'>
<svg clip-rule="evenodd" fill-rule="evenodd" stroke-linejoin="round" stroke-miterlimit="2" version="1.1" viewBox="0 0 800 800" xml:space="preserve" xmlns="http://www.w3.org/2000/svg">
    <g transform="matrix(1.8622 0 0 1.8622 -339.73 -344.68)">
        <path d="m230.26 444.42c26.03-34.43 56.449-65.449 90.005-92.435 45.471-6.514 91.571-5.584 136.42 2.791 0.628 10.857 2.822 21.714 5.959 31.95 10.976 32.259 29.792 79.097 27.284 107.01-3.451 37.843-55.508 101.74-55.508 101.74s-92.514-7.135-126.38-32.26c-22.893-17.06-44.532-66.07-59.898-95.537-4.705-8.375-10.662-16.129-17.876-22.643v-0.621z" fill="#2a2941"/>
    </g>
    <g transform="matrix(1.8622 0 0 1.8622 -339.73 -344.68)">
        <path d="m214.27 432.94-10.349 14.578 13.799 11.168c5.331 4.962 9.721 10.546 13.171 17.06 9.409 17.991 21.012 43.116 34.183 64.209 8.154 14.268 18.816 27.296 31.674 37.842 14.74 9.926 31.36 17.06 48.922 21.093 28.851 7.445 58.33 12.407 87.809 14.888l10.035 0.932 6.272-7.755c16.62-20.783 31.674-42.807 44.532-66.07 7.84-14.269 13.171-29.778 15.366-45.598 2.509-30.087-16.621-80.337-28.224-114.77-2.509-8.685-4.391-17.99-4.704-26.986l-0.941-14.889-14.74-2.791c-47.04-8.685-95.335-9.926-142.69-3.102l-5.958 0.621-4.39 3.721c-35.438 28.228-66.798 60.488-93.768 95.848zm15.994 11.477c26.03-34.431 56.449-65.449 90.004-92.435 45.472-6.515 91.572-5.584 136.42 2.791 0.628 10.857 2.822 21.713 5.959 31.949 10.976 32.26 29.792 79.098 27.284 107.02-3.451 37.843-55.509 101.74-55.509 101.74s-92.513-7.134-126.38-32.259c-22.893-17.06-44.532-66.07-59.898-95.537-4.705-8.375-10.662-16.13-17.876-22.644v-0.62z" fill="#2a2941"/>
    </g>
    <g transform="matrix(1.8622 0 0 1.8622 -339.73 -344.68)">
        <path d="m449.47 225.73h-19.13l1.568 63.278h19.444l-1.882-63.278z" fill="#2a2941"/>
    </g>
    <g transform="matrix(1.8622 0 0 1.8622 -339.73 -344.68)">
        <path d="m461.08 298.63-2.195-82.82-38.572 0.931 1.881 82.51 38.886-0.621zm-11.289-72.894h-19.13l1.568 63.279h19.444l-1.882-63.279z" fill="#2a2941"/>
    </g>
    <g transform="matrix(1.8622 0 0 1.8622 -339.73 -344.68)">
        <path d="m541.67 261.71-15.366-11.167-39.828 50.56 15.367 11.168 40.141-50.25-0.314-0.311z" fill="#2a2941"/>
    </g>
    <g transform="matrix(1.8622 0 0 1.8622 -339.73 -344.68)">
        <path d="m503.41 325.61 51.745-65.139-31.046-22.644-52.059 65.759 31.36 22.024zm38.26-63.899-15.366-11.166-39.828 50.56 15.367 11.166 40.141-50.25-0.314-0.31z" fill="#2a2941"/>
    </g>
    <g transform="matrix(1.8622 0 0 1.8622 -339.73 -344.68)">
        <path d="m571.46 359.11v-18.302l-55.508 0.93v18.302l55.508-0.93z" fill="#2a2941"/>
    </g>
    <g transform="matrix(1.8622 0 0 1.8622 -339.73 -344.68)">
        <path d="m506.55 369.66 74.951-1.241-0.628-37.533-74.95 1.242 0.627 37.532zm64.916-10.546v-18.301l-55.508 0.931v18.3l55.508-0.93z" fill="#2a2941"/>
    </g>
    <g transform="matrix(1.8622 0 0 1.8622 -339.73 -344.68)">
        <path d="m235.28 409.05c25.403-37.223 55.195-71.344 88.75-101.74 45.787-7.135 92.199-6.204 137.67 2.171 0.627 11.476 2.822 22.954 5.958 33.81 11.29 33.81 30.107 80.027 27.598 109.81-3.45 40.324-57.076 107.63-57.076 107.63s-94.708-7.754-129.83-33.81c-23.52-17.99-38.886-61.726-54.567-93.055-4.704-9.306-10.975-17.371-18.503-24.505v-0.31z" fill="#fff"/>
    </g>
    <g transform="matrix(1.8622 0 0 1.8622 -339.73 -344.68)">
        <path d="m219.6 398.51-9.721 14.268 13.171 11.167c5.645 5.273 10.349 11.476 13.799 18.301 9.721 18.921 19.13 42.495 30.419 62.347 7.527 14.269 17.562 26.987 29.792 37.533 15.054 10.546 31.988 17.99 50.177 22.643 29.478 7.754 59.585 13.028 90.004 15.819l10.662 0.932 6.272-8.065c17.249-22.024 32.615-45.288 45.786-69.793 8.154-14.889 13.486-31.019 15.68-47.769 2.823-31.948-16.307-80.958-28.537-117.56-2.822-9.616-4.391-19.231-5.018-29.157l-0.941-14.889-14.738-2.792c-47.355-8.995-96.277-9.925-143.94-2.482l-5.959 0.932-4.704 4.032c-34.496 31.329-65.23 67-91.259 105.46l-0.941-0.93zm15.994 11.166c25.403-37.223 55.195-71.343 88.75-101.74 45.786-7.134 92.199-6.204 137.67 2.171 0.628 11.477 2.823 22.954 5.959 33.811 11.29 33.81 30.106 80.028 27.598 109.8-3.451 40.325-57.077 107.64-57.077 107.64s-94.707-7.755-129.83-33.81c-23.52-17.991-38.886-61.727-54.567-93.056-4.704-9.305-10.975-17.37-18.503-24.505v-0.31z" fill="#2a2941"/>
    </g>
    <g transform="matrix(1.8622 0 0 1.8622 -339.73 -344.68)">
        <path d="m275.11 414.95c18.816-28.228 40.769-54.283 65.856-77.237 35.124-4.032 70.561-2.171 105.06 5.583 0.627 8.685 1.881 17.371 4.39 25.746 8.153 25.745 22.893 62.968 20.698 85.301-2.51 30.088-43.591 80.648-43.591 80.648s-68.679-5.583-93.767-25.435c-17.248-13.338-33.555-52.731-45.159-76.307-3.136-6.823-7.84-13.027-13.485-18.299z" fill="#fec34e"/>
    </g>
    <g transform="matrix(1.8622 0 0 1.8622 -339.73 -344.68)">
        <path d="m333.13 458.68 69.933 13.648 29.479-95.848-18.817-5.582-24.147 79.097-52.685-10.546-3.763 19.231z" fill="#2a2941"/>
    </g>
    <g transform="matrix(1.8622 0 0 1.8622 -339.73 -344.68)">
        <path d="m463.58 195.03h-19.757l1.567 67.31h19.758l-1.568-67.31z" fill="#fec34e"/>
    </g>
    <g transform="matrix(1.8622 0 0 1.8622 -339.73 -344.68)">
        <path d="m475.19 271.64-2.196-86.541-39.199 0.93 1.881 86.542 39.514-0.931zm-11.604-76.616h-19.756l1.567 67.311h19.758l-1.569-67.311z" fill="#2a2941"/>
    </g>
    <g transform="matrix(1.8622 0 0 1.8622 -339.73 -344.68)">
        <path d="m549.2 233.18-15.681-11.786-41.081 53.663 15.68 11.786 41.082-53.663z" fill="#32edbb"/>
    </g>
    <g transform="matrix(1.8622 0 0 1.8622 -339.73 -344.68)">
        <path d="m509.37 300.18 52.999-69.172-31.36-23.264-52.999 68.862 31.36 23.574zm39.201-67.001-15.681-11.787-41.081 53.663 15.68 11.787 41.082-53.663z" fill="#2a2941"/>
    </g>
    <g transform="matrix(1.8622 0 0 1.8622 -339.73 -344.68)">
        <path d="m584.32 340.5v-19.541l-57.075 0.93v19.541l57.075-0.93z" fill="#a694fe"/>
    </g>
    <g transform="matrix(1.8622 0 0 1.8622 -339.73 -344.68)">
        <path d="m517.52 351.36 76.519-1.242v-38.772l-76.519 1.24v38.774zm66.797-10.547v-19.542l-57.075 0.931v19.541l57.075-0.93z" fill="#2a2941"/>
    </g>
</svg>
